<svg xmlns="http://www.w3.org/2000/svg" xmlns:xlink="http://www.w3.org/1999/xlink" width="319.24" height="79" viewBox="0 0 319.24 79">
  <defs>
    <filter id="Rectangle_283" x="0" y="0" width="140" height="79" filterUnits="userSpaceOnUse">
      <feOffset dx="2" dy="2" input="SourceAlpha"/>
      <feGaussianBlur stdDeviation="3" result="blur"/>
      <feFlood flood-opacity="0.141"/>
      <feComposite operator="in" in2="blur"/>
      <feComposite in="SourceGraphic"/>
    </filter>
  </defs>
  <g id="Group_219" data-name="Group 219" transform="translate(-815 -907)">
    <g transform="matrix(1, 0, 0, 1, 815, 907)" filter="url(#Rectangle_283)">
      <g id="Rectangle_283-2" data-name="Rectangle 283" transform="translate(7 7)" fill="none" stroke="#fff" stroke-width="2">
        <rect width="122" height="61" rx="30.5" stroke="none"/>
        <rect x="1" y="1" width="120" height="59" rx="29.5" fill="none"/>
      </g>
    </g>
    <path id="Subtraction_66" data-name="Subtraction 66" d="M-1868.54-11992.5a27.2,27.2,0,0,1-10.315-2,26.509,26.509,0,0,1-8.423-5.468,25.379,25.379,0,0,1-5.679-8.1,24.517,24.517,0,0,1-2.082-9.927,24.515,24.515,0,0,1,2.082-9.924,25.386,25.386,0,0,1,5.679-8.106,26.484,26.484,0,0,1,8.423-5.467,27.22,27.22,0,0,1,10.315-2,27.239,27.239,0,0,1,10.315,2,26.492,26.492,0,0,1,8.424,5.465,25.388,25.388,0,0,1,5.68,8.107,24.511,24.511,0,0,1,2.083,9.925,24.513,24.513,0,0,1-2.083,9.925,25.386,25.386,0,0,1-5.68,8.106,26.5,26.5,0,0,1-8.424,5.467A27.257,27.257,0,0,1-1868.54-11992.5Zm-10.089-35a9.1,9.1,0,0,0-6.592,2.511,9.1,9.1,0,0,0-2.817,6.468,9.149,9.149,0,0,0,2.833,6.5,9.146,9.146,0,0,0,6.625,2.522,9.125,9.125,0,0,0,9.071-6.818h-4.8a4.651,4.651,0,0,1-4.319,2.93,4.6,4.6,0,0,1-3.532-1.595,5.506,5.506,0,0,1-1.3-3.562,5.4,5.4,0,0,1,1.246-3.454,4.52,4.52,0,0,1,3.556-1.606,4.643,4.643,0,0,1,4.343,3.021h4.8a8.417,8.417,0,0,0-2.63-4.476,9.392,9.392,0,0,0-6.49-2.438Zm21.49,4.22v13.453h4.582v-13.453h3.518v-3.893h-11.643v3.893Zm-9.992-3.893v17.346h4.582v-17.346Z" transform="translate(2781.04 12962.54)" fill="#fff"/>
    <path id="Path_272" data-name="Path 272" d="M10.676,13.781a3.944,3.944,0,0,0-.925-2.648A5.083,5.083,0,0,0,5.974,9.61c-2.342,0-4.891,1.433-4.891,3.953S3.519,17.027,4.5,17.408c2.153.87,2.738,1.088,2.738,1.977a1.321,1.321,0,0,1-1.36,1.288c-.453,0-1.454-.272-1.454-1.832H.875v.435c0,1.723,1,4.262,5.042,4.262,3.7,0,4.872-2.158,4.872-4.117,0-1.56-.661-2.72-3.267-3.845-2.512-1.088-2.889-1.251-2.889-2.049a1.147,1.147,0,0,1,1.228-1.052c1.1,0,1.209.852,1.284,1.306Zm5.439-3.917H12.98v3.355H11.432V15.5H12.98v7.78h3.135V15.5h1.511V13.219H16.115Zm12.578,3.355H25.558V18.75c0,1.6-.888,2.049-1.794,2.049-1.681,0-1.681-1.324-1.681-2.013V13.219H18.948V19.24a3.84,3.84,0,0,0,4.023,4.37,2.766,2.766,0,0,0,2.719-1.4h.038v1.07h2.965ZM41.875,9.864H38.74v4.207a4.091,4.091,0,0,0-3.078-1.2,5.117,5.117,0,0,0-5.193,5.35,5.122,5.122,0,0,0,5.25,5.386A3.34,3.34,0,0,0,38.853,22.2h.038v1.088h2.984ZM33.6,18.206a2.657,2.657,0,0,1,5.307,0A2.556,2.556,0,0,1,36.228,20.8,2.518,2.518,0,0,1,33.6,18.206Z" transform="translate(838.125 927.388)" fill="#fff"/>
    <path id="Student_Center_of_Information_Technologies" data-name="Student Center of  Information Technologies" d="M7.62-9.675,6.57-8.655a2.358,2.358,0,0,0-.877-.72A2.659,2.659,0,0,0,4.5-9.645,2.444,2.444,0,0,0,3.06-9.2,1.47,1.47,0,0,0,2.43-7.92a1.547,1.547,0,0,0,.15.713,1.31,1.31,0,0,0,.51.51,4.4,4.4,0,0,0,.645.33q.285.113.87.307t.893.293a6.319,6.319,0,0,1,.8.383,2.837,2.837,0,0,1,.758.563,2.749,2.749,0,0,1,.465.773,2.8,2.8,0,0,1,.2,1.1A2.848,2.848,0,0,1,6.653-.562,4.116,4.116,0,0,1,4.05.27a5,5,0,0,1-1.973-.4A3.742,3.742,0,0,1,.555-1.275L1.71-2.25a2.809,2.809,0,0,0,1.012.9A2.81,2.81,0,0,0,4.08-1a2.447,2.447,0,0,0,1.485-.473A1.565,1.565,0,0,0,6.21-2.82,1.488,1.488,0,0,0,6.06-3.5a1.833,1.833,0,0,0-.33-.48,2.079,2.079,0,0,0-.585-.368Q4.74-4.53,4.493-4.62t-.8-.255a9.827,9.827,0,0,1-1.012-.382,4.491,4.491,0,0,1-.855-.525,2.11,2.11,0,0,1-.668-.863A3.062,3.062,0,0,1,.93-7.86a2.711,2.711,0,0,1,.555-1.717A3.055,3.055,0,0,1,2.842-10.59a4.908,4.908,0,0,1,1.733-.3,4.584,4.584,0,0,1,1.733.33A3.455,3.455,0,0,1,7.62-9.675ZM13.14-7.11v1.155H11.25V-2.25a1.408,1.408,0,0,0,.24.923.96.96,0,0,0,.765.278,1.821,1.821,0,0,0,.825-.18l.045,1.155a3.513,3.513,0,0,1-1.2.2,2.017,2.017,0,0,1-1.537-.563A2.326,2.326,0,0,1,9.855-2.1V-5.955H8.49V-7.11H9.855V-9.15h1.4v2.04ZM20.94,0H19.6q-.06-.72-.06-1.17h-.03a2.344,2.344,0,0,1-.93.975,2.648,2.648,0,0,1-1.4.39,2.43,2.43,0,0,1-1.98-.81A3.148,3.148,0,0,1,14.535-2.7V-7.11h1.41v3.93q0,2.19,1.62,2.19a1.693,1.693,0,0,0,1.38-.645,2.6,2.6,0,0,0,.525-1.7V-7.11h1.41v5.58Q20.88-.615,20.94,0Zm8.055-1.125a2.607,2.607,0,0,1-1.087.975A3.289,3.289,0,0,1,26.43.2a3.355,3.355,0,0,1-2.595-1.08,3.824,3.824,0,0,1-.99-2.685,3.754,3.754,0,0,1,1-2.67,3.366,3.366,0,0,1,2.573-1.065,3.058,3.058,0,0,1,1.477.352,3.122,3.122,0,0,1,1.058.907h.03V-11.34h1.41V0H29.025V-1.125Zm-4.058-4.26a2.749,2.749,0,0,0-.622,1.815,2.778,2.778,0,0,0,.622,1.823A2.119,2.119,0,0,0,26.67-.99a2.207,2.207,0,0,0,1.725-.758,2.625,2.625,0,0,0,.675-1.808,2.653,2.653,0,0,0-.675-1.815,2.2,2.2,0,0,0-1.725-.765A2.128,2.128,0,0,0,24.937-5.385Zm8.887,1.2h4.23a2.188,2.188,0,0,0-.54-1.447A1.864,1.864,0,0,0,36.06-6.2a2.167,2.167,0,0,0-1.53.585A2.146,2.146,0,0,0,33.825-4.185Zm5.655.57q0,.315-.015.48h-5.64A2.108,2.108,0,0,0,34.53-1.6a2.287,2.287,0,0,0,1.6.623,2.361,2.361,0,0,0,2.07-1.08l.99.795A3.661,3.661,0,0,1,36.135.2,3.69,3.69,0,0,1,33.442-.84a3.61,3.61,0,0,1-1.057-2.7,3.68,3.68,0,0,1,1.05-2.708A3.548,3.548,0,0,1,36.06-7.305a3.236,3.236,0,0,1,2.5,1A3.81,3.81,0,0,1,39.48-3.615Zm1.9-3.5H42.72q.06.72.06,1.17h.045a2.244,2.244,0,0,1,.915-.975,2.648,2.648,0,0,1,1.4-.39,2.43,2.43,0,0,1,1.98.81A3.148,3.148,0,0,1,47.79-4.41V0H46.38V-3.945q0-2.175-1.62-2.175a1.7,1.7,0,0,0-1.372.645,2.577,2.577,0,0,0-.533,1.7V0h-1.41V-5.58Q41.445-6.5,41.385-7.11Zm12.27,0v1.155h-1.89V-2.25a1.408,1.408,0,0,0,.24.923.96.96,0,0,0,.765.278,1.821,1.821,0,0,0,.825-.18L53.64-.075a3.513,3.513,0,0,1-1.2.2A2.017,2.017,0,0,1,50.9-.443,2.326,2.326,0,0,1,50.37-2.1V-5.955H49V-7.11H50.37V-9.15h1.4v2.04Zm13.2,4.65,1.185.81A4.72,4.72,0,0,1,63.99.27a5.444,5.444,0,0,1-4.02-1.575A5.444,5.444,0,0,1,58.4-5.325,5.335,5.335,0,0,1,60-9.337a5.589,5.589,0,0,1,4.05-1.553,5.667,5.667,0,0,1,2.19.435A3.7,3.7,0,0,1,67.86-9.24l-1.17.9a2.794,2.794,0,0,0-1.11-.9,3.5,3.5,0,0,0-1.53-.345,3.757,3.757,0,0,0-2.918,1.23,4.34,4.34,0,0,0-1.118,3.03,4.406,4.406,0,0,0,1.1,3.053,3.7,3.7,0,0,0,2.9,1.223A3.246,3.246,0,0,0,66.855-2.46Zm3.42-1.725H74.5a2.188,2.188,0,0,0-.54-1.447A1.864,1.864,0,0,0,72.51-6.2a2.167,2.167,0,0,0-1.53.585A2.146,2.146,0,0,0,70.275-4.185Zm5.655.57q0,.315-.015.48h-5.64a2.108,2.108,0,0,0,.7,1.537,2.287,2.287,0,0,0,1.605.623,2.361,2.361,0,0,0,2.07-1.08l.99.795A3.661,3.661,0,0,1,72.585.2,3.69,3.69,0,0,1,69.893-.84a3.61,3.61,0,0,1-1.058-2.7,3.68,3.68,0,0,1,1.05-2.708A3.548,3.548,0,0,1,72.51-7.305a3.236,3.236,0,0,1,2.5,1A3.81,3.81,0,0,1,75.93-3.615Zm1.9-3.5H79.17q.06.72.06,1.17h.045a2.244,2.244,0,0,1,.915-.975,2.648,2.648,0,0,1,1.395-.39,2.43,2.43,0,0,1,1.98.81A3.148,3.148,0,0,1,84.24-4.41V0H82.83V-3.945q0-2.175-1.62-2.175a1.7,1.7,0,0,0-1.372.645,2.577,2.577,0,0,0-.533,1.7V0h-1.41V-5.58Q77.895-6.5,77.835-7.11Zm12.27,0v1.155h-1.89V-2.25a1.408,1.408,0,0,0,.24.923.96.96,0,0,0,.765.278,1.821,1.821,0,0,0,.825-.18L90.09-.075a3.513,3.513,0,0,1-1.2.2,2.017,2.017,0,0,1-1.538-.563A2.326,2.326,0,0,1,86.82-2.1V-5.955H85.455V-7.11H86.82V-9.15h1.395v2.04Zm2.43,2.925h4.23a2.188,2.188,0,0,0-.54-1.447A1.864,1.864,0,0,0,94.77-6.2a2.167,2.167,0,0,0-1.53.585A2.146,2.146,0,0,0,92.535-4.185Zm5.655.57q0,.315-.015.48h-5.64a2.108,2.108,0,0,0,.7,1.537,2.287,2.287,0,0,0,1.605.623,2.361,2.361,0,0,0,2.07-1.08l.99.795A3.661,3.661,0,0,1,94.845.2,3.69,3.69,0,0,1,92.153-.84,3.61,3.61,0,0,1,91.1-3.54a3.68,3.68,0,0,1,1.05-2.708A3.548,3.548,0,0,1,94.77-7.305a3.236,3.236,0,0,1,2.5,1A3.81,3.81,0,0,1,98.19-3.615Zm1.965-1.965q0-.915-.06-1.53h1.335q.06.72.06,1.2h.045a2.443,2.443,0,0,1,.885-1.012,2.308,2.308,0,0,1,1.29-.383,2.189,2.189,0,0,1,.555.06l-.06,1.3a2.653,2.653,0,0,0-.645-.075,1.767,1.767,0,0,0-1.478.66,2.545,2.545,0,0,0-.518,1.62V0h-1.41Zm15.285-.675a3.557,3.557,0,0,1,1.1,2.685,3.594,3.594,0,0,1-1.1,2.7A3.786,3.786,0,0,1,112.695.2a3.76,3.76,0,0,1-2.73-1.065,3.606,3.606,0,0,1-1.1-2.7,3.57,3.57,0,0,1,1.088-2.685,3.783,3.783,0,0,1,2.737-1.05A3.809,3.809,0,0,1,115.44-6.255Zm-1.012,4.508a2.737,2.737,0,0,0,.637-1.823,2.708,2.708,0,0,0-.637-1.815,2.155,2.155,0,0,0-1.733-.75,2.155,2.155,0,0,0-1.732.75,2.708,2.708,0,0,0-.637,1.815,2.737,2.737,0,0,0,.637,1.823,2.146,2.146,0,0,0,1.732.758A2.146,2.146,0,0,0,114.428-1.748Zm7.4-5.363v1.155h-1.65V0h-1.41V-5.955h-1.41V-7.11h1.41V-8.6a3.28,3.28,0,0,1,.645-2.13,2.436,2.436,0,0,1,2.01-.8,3.3,3.3,0,0,1,.885.1l-.165,1.215a2.511,2.511,0,0,0-.705-.105q-1.26,0-1.26,1.71V-7.11ZM2.775,8.38V19H1.29V8.38ZM5.22,11.89H6.555q.06.72.06,1.17H6.66a2.244,2.244,0,0,1,.915-.975,2.648,2.648,0,0,1,1.395-.39,2.43,2.43,0,0,1,1.98.81,3.148,3.148,0,0,1,.675,2.085V19h-1.41V15.055q0-2.175-1.62-2.175a1.7,1.7,0,0,0-1.372.645,2.577,2.577,0,0,0-.532,1.7V19H5.28V13.42Q5.28,12.5,5.22,11.89Zm12.135,0v1.155H15.7V19H14.3V13.045h-1.41V11.89H14.3V10.4a3.28,3.28,0,0,1,.645-2.13,2.436,2.436,0,0,1,2.01-.8,3.3,3.3,0,0,1,.885.1L17.67,8.8a2.511,2.511,0,0,0-.7-.105q-1.26,0-1.26,1.71V11.89Zm7.41.855a3.557,3.557,0,0,1,1.1,2.685,3.594,3.594,0,0,1-1.1,2.7,4.041,4.041,0,0,1-5.468,0,3.606,3.606,0,0,1-1.095-2.7,3.57,3.57,0,0,1,1.087-2.685,3.783,3.783,0,0,1,2.738-1.05A3.808,3.808,0,0,1,24.765,12.745Zm-1.012,4.508a2.737,2.737,0,0,0,.637-1.823,2.708,2.708,0,0,0-.637-1.815,2.376,2.376,0,0,0-3.465,0,2.708,2.708,0,0,0-.638,1.815,2.737,2.737,0,0,0,.638,1.823,2.36,2.36,0,0,0,3.465,0ZM27.81,13.42q0-.915-.06-1.53h1.335q.06.72.06,1.2h.045a2.443,2.443,0,0,1,.885-1.013,2.308,2.308,0,0,1,1.29-.382,2.189,2.189,0,0,1,.555.06l-.06,1.305a2.653,2.653,0,0,0-.645-.075,1.767,1.767,0,0,0-1.478.66,2.545,2.545,0,0,0-.517,1.62V19H27.81Zm6.81-.36a2.35,2.35,0,0,1,.885-.983,2.511,2.511,0,0,1,1.38-.382,2.212,2.212,0,0,1,2.2,1.425,2.607,2.607,0,0,1,1.005-1.05,2.756,2.756,0,0,1,1.41-.375,2.43,2.43,0,0,1,1.98.81,3.148,3.148,0,0,1,.675,2.085V19H42.75V15.055q0-2.175-1.575-2.175a1.514,1.514,0,0,0-1.35.675,2.826,2.826,0,0,0-.45,1.6V19h-1.41V14.77q0-1.89-1.5-1.89a1.6,1.6,0,0,0-1.3.645,2.627,2.627,0,0,0-.518,1.7V19H33.24V13.42q0-.915-.06-1.53h1.335q.06.72.06,1.17Zm16.35,1.53V14.4a1.434,1.434,0,0,0-.472-1.163,1.929,1.929,0,0,0-1.283-.4,2.753,2.753,0,0,0-2.025.825l-.75-.9a4.028,4.028,0,0,1,2.91-1.065,2.958,2.958,0,0,1,2.22.773,2.774,2.774,0,0,1,.75,2.017V17.59a7.078,7.078,0,0,0,.1,1.41H51.15a4.44,4.44,0,0,1-.12-1.02h-.045a2.67,2.67,0,0,1-2.385,1.2,3.313,3.313,0,0,1-.885-.12,3.181,3.181,0,0,1-.825-.36,1.772,1.772,0,0,1-.63-.683,2.122,2.122,0,0,1-.24-1.028,1.948,1.948,0,0,1,.293-1.073,2.042,2.042,0,0,1,.742-.7,4.1,4.1,0,0,1,1.148-.39,10.336,10.336,0,0,1,1.32-.187Q50.145,14.59,50.97,14.59Zm0,1.02h-.345q-3.165,0-3.165,1.35a.924.924,0,0,0,.42.847,1.917,1.917,0,0,0,1.035.263,1.978,1.978,0,0,0,1.507-.577,2.1,2.1,0,0,0,.548-1.508ZM58,11.89v1.155h-1.89v3.7a1.408,1.408,0,0,0,.24.923.96.96,0,0,0,.765.278,1.821,1.821,0,0,0,.825-.18l.045,1.155a3.513,3.513,0,0,1-1.2.2,2.017,2.017,0,0,1-1.537-.562A2.326,2.326,0,0,1,54.72,16.9V13.045H53.355V11.89H54.72V9.85h1.4v2.04Zm2.88,0V19h-1.41V11.89Zm.24-2.565a.845.845,0,0,1-.278.637.937.937,0,0,1-.667.262.911.911,0,0,1-.66-.262.856.856,0,0,1-.27-.637.88.88,0,0,1,.27-.645.9.9,0,0,1,.66-.27.937.937,0,0,1,.667.262A.862.862,0,0,1,61.125,9.325Zm8.325,3.42a3.557,3.557,0,0,1,1.1,2.685,3.594,3.594,0,0,1-1.1,2.7,4.041,4.041,0,0,1-5.467,0,3.606,3.606,0,0,1-1.1-2.7,3.57,3.57,0,0,1,1.088-2.685,4.1,4.1,0,0,1,5.482,0Zm-1.012,4.508a2.737,2.737,0,0,0,.637-1.823,2.708,2.708,0,0,0-.637-1.815,2.376,2.376,0,0,0-3.465,0,2.708,2.708,0,0,0-.637,1.815,2.737,2.737,0,0,0,.637,1.823,2.36,2.36,0,0,0,3.465,0Zm4-5.363H73.77q.06.72.06,1.17h.045a2.244,2.244,0,0,1,.915-.975,2.648,2.648,0,0,1,1.395-.39,2.43,2.43,0,0,1,1.98.81,3.148,3.148,0,0,1,.675,2.085V19H77.43V15.055q0-2.175-1.62-2.175a1.7,1.7,0,0,0-1.372.645,2.577,2.577,0,0,0-.533,1.7V19h-1.41V13.42Q72.495,12.5,72.435,11.89Zm15.975-2.2V19H86.925V9.685h-3.4V8.38h8.295v1.3Zm4.275,5.13h4.23a2.188,2.188,0,0,0-.54-1.447,1.864,1.864,0,0,0-1.455-.562,2.214,2.214,0,0,0-2.235,2.01Zm5.655.57q0,.315-.015.48h-5.64a2.108,2.108,0,0,0,.7,1.538,2.287,2.287,0,0,0,1.605.622,2.361,2.361,0,0,0,2.07-1.08l.99.8a3.979,3.979,0,0,1-5.752.42,3.61,3.61,0,0,1-1.058-2.7,3.68,3.68,0,0,1,1.05-2.708,3.548,3.548,0,0,1,2.625-1.057,3.236,3.236,0,0,1,2.5,1A3.81,3.81,0,0,1,98.34,15.385Zm7.965-2.52-1.02.825a1.62,1.62,0,0,0-.683-.585,2.133,2.133,0,0,0-.952-.225,2.1,2.1,0,0,0-1.695.75,2.916,2.916,0,0,0,.007,3.63,2.122,2.122,0,0,0,1.7.75,2.055,2.055,0,0,0,1.71-.78l.945.855a3.325,3.325,0,0,1-2.655,1.11,3.806,3.806,0,0,1-2.745-1.035,3.589,3.589,0,0,1-1.08-2.715,3.608,3.608,0,0,1,1.073-2.708,3.746,3.746,0,0,1,2.722-1.042A3.889,3.889,0,0,1,105.15,12,2.731,2.731,0,0,1,106.305,12.865Zm2.85.1h.03a2.117,2.117,0,0,1,.878-.907,2.65,2.65,0,0,1,1.372-.368,2.43,2.43,0,0,1,1.98.81,3.148,3.148,0,0,1,.675,2.085V19h-1.41V15.07q0-2.175-1.605-2.175a1.72,1.72,0,0,0-1.38.645,2.553,2.553,0,0,0-.54,1.7V19h-1.41V7.66h1.41Zm7.26-1.08h1.335q.06.72.06,1.17h.045a2.244,2.244,0,0,1,.915-.975,2.648,2.648,0,0,1,1.395-.39,2.43,2.43,0,0,1,1.98.81,3.148,3.148,0,0,1,.675,2.085V19h-1.41V15.055q0-2.175-1.62-2.175a1.7,1.7,0,0,0-1.372.645,2.577,2.577,0,0,0-.533,1.7V19h-1.41V13.42Q116.475,12.5,116.415,11.89Zm14.9.855A3.557,3.557,0,0,1,132.4,15.43a3.594,3.594,0,0,1-1.1,2.7,4.041,4.041,0,0,1-5.467,0,3.606,3.606,0,0,1-1.1-2.7,3.57,3.57,0,0,1,1.088-2.685,4.1,4.1,0,0,1,5.483,0ZM130.3,17.253a2.737,2.737,0,0,0,.638-1.823,2.708,2.708,0,0,0-.638-1.815,2.376,2.376,0,0,0-3.465,0,2.708,2.708,0,0,0-.637,1.815,2.737,2.737,0,0,0,.637,1.823,2.36,2.36,0,0,0,3.465,0Zm5.5-9.593V19h-1.41V7.66Zm8.565,5.085a3.557,3.557,0,0,1,1.095,2.685,3.594,3.594,0,0,1-1.1,2.7,4.041,4.041,0,0,1-5.467,0,3.606,3.606,0,0,1-1.1-2.7,3.57,3.57,0,0,1,1.087-2.685,4.1,4.1,0,0,1,5.483,0Zm-1.013,4.508a2.737,2.737,0,0,0,.638-1.823,2.708,2.708,0,0,0-.638-1.815,2.376,2.376,0,0,0-3.465,0,2.708,2.708,0,0,0-.637,1.815,2.737,2.737,0,0,0,.637,1.823,2.36,2.36,0,0,0,3.465,0Zm3.712,4.057.9-1.095a3.377,3.377,0,0,0,1.17.84,3.464,3.464,0,0,0,1.425.315q2.5,0,2.5-2.625V17.83h-.03a2.592,2.592,0,0,1-1.065.907,3.3,3.3,0,0,1-1.44.323,3.4,3.4,0,0,1-2.6-1.05,3.658,3.658,0,0,1-.99-2.61,3.73,3.73,0,0,1,.99-2.64,3.36,3.36,0,0,1,2.58-1.065,3.275,3.275,0,0,1,1.485.345,2.585,2.585,0,0,1,1.08.99h.03V11.89h1.365v6.75a5.23,5.23,0,0,1-.2,1.493,3.78,3.78,0,0,1-.645,1.253,2.911,2.911,0,0,1-1.23.892,4.869,4.869,0,0,1-1.852.323,5.439,5.439,0,0,1-1.875-.345A4.8,4.8,0,0,1,147.06,21.31Zm1.335-5.94a2.592,2.592,0,0,0,.645,1.77,2.163,2.163,0,0,0,1.71.735,2.284,2.284,0,0,0,1.747-.712,2.688,2.688,0,0,0-.015-3.562,2.261,2.261,0,0,0-1.732-.735,2.179,2.179,0,0,0-1.717.72A2.6,2.6,0,0,0,148.395,15.37Zm9.915-3.48V19H156.9V11.89Zm.24-2.565a.845.845,0,0,1-.278.637.937.937,0,0,1-.667.262.911.911,0,0,1-.66-.262.856.856,0,0,1-.27-.637.88.88,0,0,1,.27-.645.9.9,0,0,1,.66-.27.937.937,0,0,1,.667.262A.862.862,0,0,1,158.55,9.325Zm3.195,5.49h4.23a2.188,2.188,0,0,0-.54-1.447,1.864,1.864,0,0,0-1.455-.562,2.214,2.214,0,0,0-2.235,2.01Zm5.655.57q0,.315-.015.48h-5.64a2.108,2.108,0,0,0,.705,1.538,2.287,2.287,0,0,0,1.6.622,2.361,2.361,0,0,0,2.07-1.08l.99.8a3.979,3.979,0,0,1-5.753.42,3.61,3.61,0,0,1-1.057-2.7,3.68,3.68,0,0,1,1.05-2.708,3.548,3.548,0,0,1,2.625-1.057,3.236,3.236,0,0,1,2.5,1A3.81,3.81,0,0,1,167.4,15.385Zm6.78-2.52-.975.825a1.828,1.828,0,0,0-.683-.638,1.949,1.949,0,0,0-.967-.247,1.783,1.783,0,0,0-.93.233.76.76,0,0,0-.39.7.712.712,0,0,0,.375.645,4.508,4.508,0,0,0,1.245.42q2.385.525,2.385,2.1a1.958,1.958,0,0,1-.817,1.733,3.475,3.475,0,0,1-2.018.563,4.01,4.01,0,0,1-1.605-.33,3.228,3.228,0,0,1-1.26-.945l1.005-.855a2.148,2.148,0,0,0,.8.712,2.27,2.27,0,0,0,1.088.278,1.9,1.9,0,0,0,1-.248.854.854,0,0,0,.405-.787.765.765,0,0,0-.428-.7,6.04,6.04,0,0,0-1.432-.48,6.532,6.532,0,0,1-.735-.225,3.34,3.34,0,0,1-.645-.337,1.475,1.475,0,0,1-.51-.57,1.809,1.809,0,0,1-.18-.832,1.853,1.853,0,0,1,.788-1.627,3.241,3.241,0,0,1,1.9-.548,3.728,3.728,0,0,1,1.493.307A2.433,2.433,0,0,1,174.18,12.865Z" transform="translate(960 940.998)" fill="#fff"/>
  </g>
</svg>
