<svg xmlns="http://www.w3.org/2000/svg" width="144.197" height="144.191" viewBox="0 0 144.197 144.191">
  <g id="not-found" transform="translate(-0.001 0)">
    <path id="Path_258" data-name="Path 258" d="M111.279,61.088a2.809,2.809,0,1,0-1.265,5.474,38.377,38.377,0,1,1-20.733.933,2.809,2.809,0,1,0-1.756-5.337A43.556,43.556,0,0,0,70.181,72.848a44.03,44.03,0,1,0,41.1-11.759Zm0,0" transform="translate(-41.164 -43.831)" fill="#e3e3e3" fill-rule="evenodd"/>
    <path id="Path_259" data-name="Path 259" d="M140.372,121.866l-29.44-29.44a60.121,60.121,0,1,0-18.505,18.505l29.44,29.44a13.085,13.085,0,1,0,18.506-18.505ZM136.4,136.4a7.5,7.5,0,0,1-10.56,0L94.773,105.333a2.81,2.81,0,0,0-3.588-.322A54.54,54.54,0,0,1,21.592,21.591a54.54,54.54,0,0,1,83.419,69.594,2.808,2.808,0,0,0,.322,3.588L136.4,125.839a7.477,7.477,0,0,1,0,10.56Zm0,0" transform="translate(0 0)" fill="#e3e3e3" fill-rule="evenodd"/>
    <path id="Path_260" data-name="Path 260" d="M185.192,151.273a2.809,2.809,0,0,0-3.973,0l-12.986,12.986-12.987-12.986a2.809,2.809,0,0,0-3.973,3.973l12.986,12.987-12.986,12.986a2.809,2.809,0,1,0,3.973,3.973l12.986-12.986,12.986,12.986a2.809,2.809,0,0,0,3.974-3.973L172.2,168.233l12.987-12.987A2.809,2.809,0,0,0,185.192,151.273Zm0,0" transform="translate(-108.078 -108.078)" fill="#e3e3e3" fill-rule="evenodd"/>
    <path id="Path_261" data-name="Path 261" d="M199.81,63a2.809,2.809,0,1,0-2.81-2.81A2.815,2.815,0,0,0,199.81,63Zm0,0" transform="translate(-141.517 -41.219)" fill="#e3e3e3" fill-rule="evenodd"/>
  </g>
</svg>
