<svg xmlns="http://www.w3.org/2000/svg" width="988" height="524" viewBox="0 0 988 524">
  <g id="Group_211" data-name="Group 211" transform="translate(-466 -278)">
    <g id="Group_210" data-name="Group 210">
      <g id="Path_257" data-name="Path 257" transform="translate(466 278)" fill="none">
        <path d="M262.035,0h463.93C870.683,0,988,117.3,988,262S870.683,524,725.965,524H262.035C117.317,524,0,406.7,0,262S117.317,0,262.035,0Z" stroke="none"/>
        <path d="M 262.0347290039063 15 C 125.8192749023438 15 15 125.8037109375 15 262 C 15 398.1962890625 125.8192749023438 509 262.0347290039063 509 L 725.9651489257813 509 C 862.1805419921875 509 973 398.1962890625 973 262 C 973 125.8037109375 862.1805419921875 15 725.9651489257813 15 L 262.0347290039063 15 M 262.0347290039063 0 L 725.9651489257813 0 C 870.6829833984375 0 988 117.3014221191406 988 262 C 988 406.6985778808594 870.6829833984375 524 725.9651489257813 524 L 262.0347290039063 524 C 117.3170166015625 524 0 406.6985778808594 0 262 C 0 117.3014221191406 117.3170166015625 0 262.0347290039063 0 Z" stroke="none" fill="#acacac"/>
      </g>
      <g id="Group_209" data-name="Group 209" transform="translate(464)">
        <circle id="Ellipse_89" data-name="Ellipse 89" cx="168" cy="168" r="168" transform="translate(563 372)" fill="#fff"/>
        <path id="Subtraction_33" data-name="Subtraction 33" d="M214.842,429.47a216.533,216.533,0,0,1-43.3-4.363A213.721,213.721,0,0,1,94.722,392.8a215.375,215.375,0,0,1-77.838-94.477A213.571,213.571,0,0,1,4.365,258.011a216.725,216.725,0,0,1,0-86.553A213.5,213.5,0,0,1,36.692,94.674a215.455,215.455,0,0,1,94.524-77.8A213.841,213.841,0,0,1,171.544,4.363a217.044,217.044,0,0,1,86.6,0,213.72,213.72,0,0,1,76.822,32.311A215.374,215.374,0,0,1,412.8,131.15a213.577,213.577,0,0,1,12.519,40.308,216.724,216.724,0,0,1,0,86.553A213.508,213.508,0,0,1,392.992,334.8a215.455,215.455,0,0,1-94.524,77.8,213.849,213.849,0,0,1-40.328,12.512A216.533,216.533,0,0,1,214.842,429.47ZM145.3,147.892c-41.288,0-65.96,33.105-65.96,65.111,0,32.172,24.8,65.45,66.3,65.45,30.759,0,56.309-19.881,63.58-49.47h-33.66a41.871,41.871,0,0,1-8.372,12.282,30.078,30.078,0,0,1-21.887,8.968,31.622,31.622,0,0,1-24.756-11.56,38.077,38.077,0,0,1-6.728-11.964,41.934,41.934,0,0,1-2.346-13.876,39.975,39.975,0,0,1,8.734-25.054,31.8,31.8,0,0,1,10.559-8.439,32.278,32.278,0,0,1,14.368-3.227,31.6,31.6,0,0,1,11.568,2.112,30.438,30.438,0,0,1,8.811,5.347,36.878,36.878,0,0,1,10.051,14.471h33.66c-1.934-11.215-8.829-23.354-18.445-32.471C182.263,157.507,167.467,147.892,145.3,147.892Zm125.8,2.381v28.22h24.819v97.581h32.131V178.493H352.7v-28.22Zm-45.22,0v125.8h32.13v-125.8Z" transform="translate(513.266 325.265)" fill="#acacac"/>
      </g>
    </g>
    <text id="Stud" transform="translate(583 596)" fill="#acacac" font-size="150" font-family="AvantGardeLT-Bold, ITC Avant Garde Gothic LT" font-weight="700"><tspan x="0" y="0">Stud</tspan></text>
  </g>
</svg>
