<svg xmlns="http://www.w3.org/2000/svg" width="15.211" height="21.684" viewBox="0 0 15.211 21.684">
  <g id="placeholder" transform="translate(-7.949 0.25)">
    <path id="Path_285" data-name="Path 285" d="M20.755,2.154a7.353,7.353,0,0,0-10.4,0,8.375,8.375,0,0,0-.692,10.334L15.556,21l5.882-8.5A8.378,8.378,0,0,0,20.755,2.154Zm.061,9.9-5.26,7.6L10.287,12.04A7.567,7.567,0,0,1,10.9,2.7a6.586,6.586,0,0,1,9.314,0A7.57,7.57,0,0,1,20.816,12.051Z" transform="translate(0 0)" fill="#fff" stroke="#fff" stroke-width="0.5"/>
    <circle id="Ellipse_87" data-name="Ellipse 87" cx="2.301" cy="2.301" r="2.301" transform="translate(13.329 4.985)" fill="#fff"/>
  </g>
</svg>
