<svg xmlns="http://www.w3.org/2000/svg" width="39" height="30" viewBox="0 0 39 30"><g><g><path fill="#828282" d="M34.368 23.179l-2.733 2.733a7.767 7.767 0 0 1-5.528 2.29H9.724a.87.87 0 0 1-.869-.869 2.15 2.15 0 0 1 1.847-2.116l8.714-1.37a.87.87 0 0 0 .48-1.47L6.858 9.34a1.59 1.59 0 0 1 2.247-2.247l8.692 8.693a.87.87 0 1 0 1.227-1.23l-3.55-3.55a1.586 1.586 0 0 1 .01-2.246 1.586 1.586 0 0 1 2.237 0l3.551 3.551a.87.87 0 1 0 1.227-1.23l-1.812-1.812a1.586 1.586 0 0 1 .01-2.247 1.586 1.586 0 0 1 2.236 0l1.821 1.821c.004.002.002.002.002.002l.002.001.001.002.002.002h.002l.001.002a.868.868 0 0 0 1.211-1.246l-.074-.075a1.574 1.574 0 0 1-.464-1.119c0-.422.163-.818.472-1.127.619-.616 1.62-.614 2.209-.03l6.505 7.15a7.802 7.802 0 0 1 2.031 5.254 7.754 7.754 0 0 1-2.287 5.52zm1.54-11.943l-6.533-7.18a3.326 3.326 0 0 0-5.544 1.448 3.328 3.328 0 0 0-5.214 1.735 3.33 3.33 0 0 0-5.204 1.705l-3.079-3.079a3.326 3.326 0 0 0-4.703.01 3.321 3.321 0 0 0 0 4.693l11.828 11.83-7.016 1.1a3.892 3.892 0 0 0-3.325 3.835 2.61 2.61 0 0 0 2.606 2.606h16.383a9.493 9.493 0 0 0 6.757-2.799l2.733-2.733a9.477 9.477 0 0 0 2.795-6.748 9.53 9.53 0 0 0-2.484-6.423z"/></g><g><path fill="#828282" d="M15.103 5.012A7.833 7.833 0 0 0 7.987.402C3.676.402.168 3.91.168 8.221a7.837 7.837 0 0 0 4.61 7.118.873.873 0 0 0 1.15-.434.872.872 0 0 0-.435-1.15A6.093 6.093 0 0 1 1.905 8.22 6.088 6.088 0 0 1 7.987 2.14a6.093 6.093 0 0 1 5.534 3.588.869.869 0 0 0 1.583-.716z"/></g></g></svg>