<svg xmlns="http://www.w3.org/2000/svg" xmlns:xlink="http://www.w3.org/1999/xlink" width="318" height="79" viewBox="0 0 318 79">
  <defs>
    <filter id="Rectangle_283" x="0" y="0" width="140" height="79" filterUnits="userSpaceOnUse">
      <feOffset dx="2" dy="2" input="SourceAlpha"/>
      <feGaussianBlur stdDeviation="3" result="blur"/>
      <feFlood flood-opacity="0.141"/>
      <feComposite operator="in" in2="blur"/>
      <feComposite in="SourceGraphic"/>
    </filter>
  </defs>
  <g id="Group_301" data-name="Group 301" transform="translate(-133 -52)">
    <g id="Group_219" data-name="Group 219" transform="translate(-533.96 -114.458)">
      <g transform="matrix(1, 0, 0, 1, 666.96, 166.46)" filter="url(#Rectangle_283)">
        <g id="Rectangle_283-2" data-name="Rectangle 283" transform="translate(7 7)" fill="none" stroke="#fff" stroke-width="2">
          <rect width="122" height="61" rx="30.5" stroke="none"/>
          <rect x="1" y="1" width="120" height="59" rx="29.5" fill="none"/>
        </g>
      </g>
      <path id="Subtraction_66" data-name="Subtraction 66" d="M-1868.541-11992.541a27.231,27.231,0,0,1-10.315-2,26.5,26.5,0,0,1-8.423-5.466,25.383,25.383,0,0,1-5.679-8.106,24.514,24.514,0,0,1-2.082-9.925,24.514,24.514,0,0,1,2.082-9.925,25.383,25.383,0,0,1,5.679-8.106,26.5,26.5,0,0,1,8.423-5.466,27.231,27.231,0,0,1,10.315-2,27.234,27.234,0,0,1,10.315,2,26.51,26.51,0,0,1,8.424,5.466,25.382,25.382,0,0,1,5.68,8.106,24.51,24.51,0,0,1,2.083,9.925,24.51,24.51,0,0,1-2.083,9.925,25.382,25.382,0,0,1-5.68,8.106,26.509,26.509,0,0,1-8.424,5.466A27.234,27.234,0,0,1-1868.541-11992.541Zm-10.089-35a9.1,9.1,0,0,0-9.409,8.978,9.147,9.147,0,0,0,9.458,9.021,9.126,9.126,0,0,0,9.071-6.818h-4.8a4.65,4.65,0,0,1-4.319,2.929,4.6,4.6,0,0,1-3.532-1.593,5.5,5.5,0,0,1-1.295-3.563,5.4,5.4,0,0,1,1.246-3.454,4.52,4.52,0,0,1,3.556-1.608,4.643,4.643,0,0,1,4.343,3.022h4.8a8.415,8.415,0,0,0-2.63-4.476A9.387,9.387,0,0,0-1878.63-12027.542Zm21.49,4.22v13.453h4.582v-13.453h3.518v-3.893h-11.643v3.893Zm-9.992-3.893v17.346h4.582v-17.346Z" transform="translate(2633 12222)" fill="#fff"/>
      <path id="Path_272" data-name="Path 272" d="M10.676,13.781a3.944,3.944,0,0,0-.925-2.648A5.083,5.083,0,0,0,5.974,9.61c-2.342,0-4.891,1.433-4.891,3.953S3.519,17.027,4.5,17.408c2.153.87,2.738,1.088,2.738,1.977a1.321,1.321,0,0,1-1.36,1.288c-.453,0-1.454-.272-1.454-1.832H.875v.435c0,1.723,1,4.262,5.042,4.262,3.7,0,4.872-2.158,4.872-4.117,0-1.56-.661-2.72-3.267-3.845-2.512-1.088-2.889-1.251-2.889-2.049a1.147,1.147,0,0,1,1.228-1.052c1.1,0,1.209.852,1.284,1.306Zm5.439-3.917H12.98v3.355H11.432V15.5H12.98v7.78h3.135V15.5h1.511V13.219H16.115Zm12.578,3.355H25.558V18.75c0,1.6-.888,2.049-1.794,2.049-1.681,0-1.681-1.324-1.681-2.013V13.219H18.948V19.24a3.84,3.84,0,0,0,4.023,4.37,2.766,2.766,0,0,0,2.719-1.4h.038v1.07h2.965ZM41.875,9.864H38.74v4.207a4.091,4.091,0,0,0-3.078-1.2,5.117,5.117,0,0,0-5.193,5.35,5.122,5.122,0,0,0,5.25,5.386A3.34,3.34,0,0,0,38.853,22.2h.038v1.088h2.984ZM33.6,18.206a2.657,2.657,0,0,1,5.307,0A2.556,2.556,0,0,1,36.228,20.8,2.518,2.518,0,0,1,33.6,18.206Z" transform="translate(690.085 186.848)" fill="#fff"/>
    </g>
    <text id="Student_Center_of_Information_Technologies" data-name="Student Center of 
Information Technologies" transform="translate(278 86)" fill="#fff" font-size="15" font-family="AvenirNextCyr-Light, Avenir Next Cyr" font-weight="300"><tspan x="0" y="0">Student Center of </tspan><tspan x="0" y="19">Information Technologies</tspan></text>
  </g>
</svg>
